<?xml version="1.0" encoding="UTF-8" standalone="no"?>
<!-- Created with Inkscape (http://www.inkscape.org/) -->

<svg
   width="256mm"
   height="256mm"
   viewBox="0 0 256 256"
   version="1.1"
   id="svg5"
   inkscape:version="1.2 (dc2aedaf03, 2022-05-15)"
   sodipodi:docname="cat.svg"
   inkscape:export-filename="cat.png"
   inkscape:export-xdpi="96"
   inkscape:export-ydpi="96"
   xmlns:inkscape="http://www.inkscape.org/namespaces/inkscape"
   xmlns:sodipodi="http://sodipodi.sourceforge.net/DTD/sodipodi-0.dtd"
   xmlns="http://www.w3.org/2000/svg"
   xmlns:svg="http://www.w3.org/2000/svg">
  <sodipodi:namedview
     id="namedview7"
     pagecolor="#505050"
     bordercolor="#eeeeee"
     borderopacity="1"
     inkscape:showpageshadow="0"
     inkscape:pageopacity="0"
     inkscape:pagecheckerboard="0"
     inkscape:deskcolor="#505050"
     inkscape:document-units="mm"
     showgrid="false"
     inkscape:zoom="0.64526879"
     inkscape:cx="239.4351"
     inkscape:cy="484.2943"
     inkscape:window-width="1920"
     inkscape:window-height="1051"
     inkscape:window-x="-9"
     inkscape:window-y="-9"
     inkscape:window-maximized="1"
     inkscape:current-layer="layer1" />
  <defs
     id="defs2" />
  <g
     inkscape:label="Layer 1"
     inkscape:groupmode="layer"
     id="layer1">
    <path
       id="shape0"
       fill="#a57855"
       fill-rule="evenodd"
       stroke="#3d3232"
       stroke-width="1.81121"
       stroke-linecap="square"
       stroke-linejoin="bevel"
       d="m 160.19322,172.14623 c 0,-15.79544 -6.32078,-26.17298 -22.71207,-26.17298 -16.39124,0 -31.48419,7.60002 -32.44579,28.33599 2.45196,19.66835 14.40671,23.36092 30.79789,23.36092 16.39129,0 24.35997,-9.72859 24.35997,-25.52393 z"
       sodipodi:nodetypes="ccccc"
       style="fill:#ad7757;stroke:#4d2b32;stroke-width:1.8;stroke-dasharray:none;stroke-opacity:1"
       inkscape:export-filename="neko.png"
       inkscape:export-xdpi="18.572159"
       inkscape:export-ydpi="18.572159" />
    <path
       id="shape0-7"
       d="m 138.2978,146.34153 c -8.8444,0 -17.30967,2.21499 -23.38204,7.51014 6.40568,2.47095 14.75241,4.05428 25.71007,3.54965 6.62108,-0.30492 11.96655,-1.14399 16.31218,-2.29288 -3.53227,-5.55984 -9.53006,-8.76691 -18.64021,-8.76691 z"
       style="fill:#4d2b32;fill-opacity:1;stroke:#4d2b32;stroke-opacity:1" />
    <path
       id="path249"
       fill="#a57855"
       fill-rule="evenodd"
       stroke="#3d3232"
       stroke-width="1.52951"
       stroke-linecap="square"
       stroke-linejoin="bevel"
       d="m 104.92876,70.22968 c -4.90289,1.564 -11.904697,24.62509 -12.312569,34.10807 -0.611809,14.22439 0.42462,28.99527 6.542801,35.26626 6.118038,6.27098 17.623378,14.59571 40.871898,13.52505 23.24856,-1.07067 30.81262,-8.71541 34.33047,-13.30392 3.51785,-4.58852 8.59635,-22.58282 5.84321,-38.79559 -2.75309,-16.21282 -5.89715,-26.51105 -10.79157,-30.0289 -3.26292,-2.34527 -9.64977,3.56509 -19.16063,17.73111 l -26.43415,-0.0714 C 114.49385,75.33065 108.19735,69.18709 104.92876,70.22978 Z"
       sodipodi:nodetypes="czzzzzzccz"
       style="stroke:#4d2b32;stroke-width:1.8;stroke-dasharray:none;stroke-opacity:1" />
    <path
       id="rect520-8"
       style="fill:#d7b594;fill-opacity:1;stroke:none;stroke-width:0.981001"
       d="m 138.40465,89.55296 v 11.99358 c 0,1.86164 1.60538,3.36 3.59978,3.36 h 0.55603 c 1.9944,0 3.59978,-1.49836 3.59978,-3.36 V 89.55296 Z" />
    <ellipse
       id="shape1"
       rx="13.763223"
       ry="8.6802139"
       cx="137.58554"
       cy="132.36182"
       fill="#eb9660"
       fill-rule="evenodd"
       stroke="none"
       stroke-width="1.564"
       stroke-linecap="square"
       stroke-linejoin="bevel"
       style="fill:#d7b594" />
    <path
       id="shape01"
       fill="#a57855"
       fill-rule="evenodd"
       stroke="#3d3232"
       stroke-width="1.52951"
       stroke-linecap="square"
       stroke-linejoin="bevel"
       d="m 153.77725,197.03421 c -2.97067,0.18719 -5.51035,0.30428 -8.77761,-2.16763 2.11635,-3.98916 3.46479,-4.75703 6.01188,-5.16909 2.54708,-0.41181 6.39784,0.93524 7.85865,2.62081 1.46085,1.68553 -0.65684,4.41696 -5.09292,4.71591 z"
       sodipodi:nodetypes="cczzc"
       style="fill:#d7b594;fill-opacity:1;stroke:#4d2b32;stroke-width:1.8;stroke-dasharray:none;stroke-opacity:1" />
    <circle
       id="shape02"
       r="10.720619"
       cx="110.58834"
       cy="125.09376"
       fill="#ffffff"
       fill-rule="evenodd"
       stroke="#3d3232"
       stroke-width="1.58303"
       stroke-linecap="square"
       stroke-linejoin="bevel"
       style="stroke:#4d2b32;stroke-width:1.8;stroke-dasharray:none;stroke-opacity:1" />
    <circle
       id="shape03"
       r="10.088426"
       cx="163.42905"
       cy="125.19862"
       fill="#ffffff"
       fill-rule="evenodd"
       stroke="#3d3232"
       stroke-width="1.48968"
       stroke-linecap="square"
       stroke-linejoin="bevel"
       style="stroke:#4d2b32;stroke-width:1.8;stroke-dasharray:none;stroke-opacity:1" />
    <path
       id="shape2"
       fill="#b55845"
       fill-rule="evenodd"
       stroke="#3d3232"
       stroke-width="1.81121"
       stroke-linecap="square"
       stroke-linejoin="bevel"
       d="m 133.07445,126.06445 4.41847,5.95533 4.93077,-6.01937 z"
       sodipodi:nodetypes="cccc"
       style="fill:#7a4841;stroke:#4d2b32;stroke-width:1.8;stroke-dasharray:none;stroke-opacity:1" />
    <circle
       id="shape04"
       r="2.783864"
       cx="162.73012"
       cy="127.76504"
       fill="#583d47"
       fill-rule="evenodd"
       stroke="#3d3232"
       stroke-width="1.48968"
       stroke-linecap="square"
       stroke-linejoin="bevel"
       style="fill:#4d2b32;stroke:#4d2b32;stroke-opacity:1" />
    <circle
       id="shape05"
       r="2.9583156"
       cx="111.53643"
       cy="128.11891"
       fill="#583d47"
       fill-rule="evenodd"
       stroke="#3d3232"
       stroke-width="1.58303"
       stroke-linecap="square"
       stroke-linejoin="bevel"
       style="fill:#4d2b32;stroke:#4d2b32;stroke-opacity:1" />
    <path
       id="shape3"
       fill="none"
       stroke="#3d3232"
       stroke-width="1.81121"
       stroke-linecap="square"
       stroke-linejoin="bevel"
       d="m 129.27824,133.81619 3.77794,4.26231 4.57713,-5.27948 4.64979,5.20682 4.57714,-4.50447"
       sodipodi:nodetypes="ccccc"
       style="stroke:#4d2b32;stroke-width:1.8;stroke-dasharray:none;stroke-opacity:1" />
    <path
       id="shape4"
       fill="#a57855"
       fill-rule="evenodd"
       stroke="#3d3232"
       stroke-width="1.52951"
       stroke-linecap="square"
       stroke-linejoin="bevel"
       d="m 124.39471,179.39237 c 2.52353,11.46421 5.47972,17.71899 8.86851,18.76453 5.08313,1.56814 6.57745,0.52292 6.70545,-0.91934 0.128,-1.44226 -1.1221,-16.19916 -1.00009,-19.45823"
       sodipodi:nodetypes="czzc"
       style="fill:#ad7757;stroke:#4d2b32;stroke-width:1.8;stroke-dasharray:none;stroke-opacity:1" />
    <path
       id="shape5"
       fill="#a57855"
       fill-rule="evenodd"
       stroke="#3d3232"
       stroke-width="1.52951"
       stroke-linecap="square"
       stroke-linejoin="bevel"
       d="m 155.38038,178.41899 c -1.26174,9.87794 -2.7759,15.73623 -4.54236,17.57486 -2.64979,2.75781 -5.06359,5.05006 -7.51333,2.99431 -2.44974,-2.05575 0.67565,-16.28896 0.45663,-21.43004"
       sodipodi:nodetypes="czzc"
       style="fill:#ad7757;stroke:#4d2b32;stroke-width:1.8;stroke-dasharray:none;stroke-opacity:1" />
    <path
       id="shape6"
       fill="#a57855"
       fill-rule="evenodd"
       stroke="#3d3232"
       stroke-width="1.52951"
       stroke-linecap="square"
       stroke-linejoin="bevel"
       d="m 119.32992,197.99579 c 2.85919,-0.0372 7.32961,0.26234 7.69867,-2.42671 0.28718,-2.09355 -2.83215,-4.31596 -5.28362,-4.7125 -2.45147,-0.39654 -5.94844,0.8652 -7.35442,2.48748 -1.40597,1.62227 0.63221,4.59593 4.93937,4.65173 z"
       sodipodi:nodetypes="cszzc"
       style="fill:#d7b594;fill-opacity:1;stroke:#4d2b32;stroke-width:1.8;stroke-dasharray:none;stroke-opacity:1" />
    <path
       id="shape7"
       fill="#a57855"
       fill-rule="evenodd"
       stroke="#3d3232"
       stroke-width="1.52951"
       stroke-linecap="square"
       stroke-linejoin="bevel"
       d="m 113.95278,192.91599 c -29.46853,2.60013 -44.66162,-3.16101 -45.579333,-17.28349 -1.376519,-21.18373 19.730633,-16.36577 19.271762,-2.37078 -0.305904,9.33008 6.729856,14.32646 21.107251,14.98926 0,0 1.73346,1.55498 5.20032,4.66501 z"
       sodipodi:nodetypes="czzcc"
       style="fill:#ad7757;stroke:#4d2b32;stroke-width:1.8;stroke-dasharray:none;stroke-opacity:1" />
    <path
       id="shape8"
       fill="#eb9660"
       fill-rule="evenodd"
       stroke="none"
       stroke-width="1.564"
       stroke-linecap="square"
       stroke-linejoin="bevel"
       d="m 121.38798,90.55654 c 0.31182,5.53933 -23.188965,13.36205 -25.159658,8.34971 -1.970643,-5.01249 5.375788,-26.91292 9.676768,-26.87385 4.30103,0.0394 15.17073,12.98477 15.48289,18.52414 z"
       sodipodi:nodetypes="czcz"
       style="fill:#d7b594" />
    <path
       id="shape9"
       fill="#f2b888"
       fill-rule="evenodd"
       stroke="none"
       stroke-width="1.564"
       stroke-linecap="square"
       stroke-linejoin="bevel"
       d="m 97.899022,88.36103 c -1.102634,6.12995 11.135108,5.21998 13.038018,-0.0714 1.90286,-5.2916 -1.07342,-12.55773 -5.13983,-13.61342 -4.06641,-1.05574 -6.772895,7.42899 -7.898188,13.68495 z"
       sodipodi:nodetypes="czcs"
       style="fill:#e7d5b3" />
    <path
       id="shape06"
       fill="#eb9660"
       fill-rule="evenodd"
       stroke-opacity="0"
       stroke="#000000"
       stroke-width="0"
       stroke-linecap="square"
       stroke-linejoin="bevel"
       d="m 152.03529,90.55029 c -0.32216,5.71794 23.93677,13.79292 25.97096,8.61896 2.03419,-5.17417 -5.54908,-27.78078 -9.98878,-27.74039 -4.43975,0.0394 -15.65997,13.40348 -15.98218,19.12143 z"
       sodipodi:nodetypes="czcz"
       style="fill:#d7b594" />
    <path
       id="path266"
       fill="#f2b888"
       fill-rule="evenodd"
       stroke-opacity="0"
       stroke="#000000"
       stroke-width="0"
       stroke-linecap="square"
       stroke-linejoin="bevel"
       d="m 176.28171,88.28399 c 1.1382,6.32763 -11.49421,5.38829 -13.45845,-0.0739 -1.96424,-5.46224 1.108,-12.96265 5.30554,-14.05243 4.19753,-1.08973 6.99131,7.66859 8.15291,14.12627 z"
       sodipodi:nodetypes="czcs"
       style="fill:#e7d5b3" />
    <path
       id="rect520"
       style="fill:#d7b594;fill-opacity:1;stroke:none;stroke-width:0.981001"
       d="m 128.18707,89.49039 v 11.99358 c 0,1.86164 1.60538,3.36 3.59978,3.36 h 0.55603 c 1.9944,0 3.59978,-1.49836 3.59978,-3.36 V 89.49039 Z" />
    <path
       style="fill:#d7b594;fill-opacity:1;stroke:#4d2b32;stroke-width:1.8;stroke-dasharray:none;stroke-opacity:1"
       d="m 70.135394,181.24256 c 1.52218,1.30473 17.692636,0.33375 17.758771,-4.49406 0.682135,-11.8174 -5.638991,-16.37866 -11.452594,-15.72919 -11.333403,3.2468 -9.012851,16.91799 -6.306177,20.22325 z"
       id="path5078"
       sodipodi:nodetypes="cccc" />
    <path
       style="fill:#d7b594;stroke:#4d2b32;stroke-width:1.8;stroke-dasharray:none;stroke-opacity:1"
       d="m 129.23817,193.02438 c 0.58943,-2.48585 10.07128,-3.08235 10.46502,-0.83629 0.36885,2.10411 0.87077,6.62856 -1.9692,6.83562 -5.34095,0.3894 -9.08524,-3.51349 -8.49582,-5.99933 z"
       id="path4459"
       sodipodi:nodetypes="zssz" />
    <path
       style="fill:#d7b594;stroke:#4d2b32;stroke-width:1.73801;stroke-dasharray:none;stroke-opacity:1"
       d="m 151.814,193.32143 c -0.54542,-2.50457 -9.31937,-3.10557 -9.68372,-0.84259 -0.34131,2.11996 -0.80576,6.6785 1.82218,6.88712 4.94221,0.39233 8.40696,-3.53996 7.86154,-6.04453 z"
       id="path4459-8"
       sodipodi:nodetypes="zssz" />
  </g>
</svg>
